<?xml version="1.0" encoding="UTF-8"?>
<svg id="Layer_2" data-name="Layer 2" xmlns="http://www.w3.org/2000/svg" viewBox="0 0 882.35 379.12">
  <defs>
    <style>
      .cls-1 {
        fill: #9e9bff;
        stroke-width: 0px;
      }
    </style>
  </defs>
  <g id="Graffiti_Overlay" data-name="Graffiti Overlay">
    <g>
      <path class="cls-1" d="m129.72,211.86c-14.55-7.39-30.18-11.95-46.44-13.42-15.32-1.38-32.34-.46-46.65,5.6s-22.44,19-27.59,33.54C3.41,253.44.02,270.36,0,287.21c-.04,30.02,11.71,59.32,36.14,77.6,11.05,8.27,24.26,13.38,38.07,14.19,16.88.99,33.37-4.48,48.44-11.6,33.28-15.71,64-38.47,89.34-65.09,4.44-4.66-2.62-11.74-7.07-7.07-20.29,21.3-43.68,39.3-69.19,53.94-24.35,13.98-53.92,27.49-81.64,14.75-23.94-11-38.86-34.85-42.92-60.32-2.39-15-1.13-30.59,2.25-45.34,3.01-13.16,7.04-29.16,17.18-38.77,11.49-10.89,30.79-11.97,45.75-11.49,16.81.54,33.34,4.87,48.32,12.48,5.73,2.91,10.79-5.72,5.05-8.63h0Z"/>
      <path class="cls-1" d="m193.92,226.34c-17.4,16.89-22.29,41.72-22.73,65.09-.24,12.69.64,25.45,9.17,35.53,8.04,9.49,20.29,15.1,32.19,17.86,12.14,2.82,24.93,3.37,37.36,3.01,5.64-.16,11.29-.91,15.91-4.4,5.08-3.84,7.47-9.85,9.3-15.75,4-12.93,5.8-25.73-1.66-37.75-6.69-10.79-17.15-19.62-26.3-28.27-20.5-19.4-43.65-37.69-71.96-43.38-6.28-1.26-8.97,8.37-2.66,9.64,21.37,4.3,39.68,16.23,55.96,30.29,8.09,6.98,15.75,14.43,23.34,21.95s16.96,16.17,17.09,27.79c.06,5.79-1.76,11.6-3.46,17.08s-3.67,10.78-9.74,12.22c-4.96,1.18-10.6.67-15.67.57-5.61-.11-11.25-.38-16.82-1.15-10.7-1.48-21.79-4.7-30.39-11.5-9.44-7.47-11.64-17.55-11.71-29.1-.14-22.12,3.21-46.54,19.83-62.66,4.63-4.49-2.45-11.56-7.07-7.07h0Z"/>
      <path class="cls-1" d="m220.23,197.21c46.67,39.04,85.89,86.33,115.55,139.47,3.14,5.62,11.78.58,8.63-5.05-30.04-53.81-69.85-101.95-117.11-141.49-4.9-4.1-12.01,2.94-7.07,7.07h0Z"/>
      <path class="cls-1" d="m245.39,219.41c9.24-11.4,20.62-20.69,33.84-27.13,6.6-3.21,14.55-6.7,22.07-5.47,6.63,1.09,11.79,5.87,15.88,10.89,9.95,12.18,17.42,27.06,25.04,40.75,8.05,14.46,15.66,29.17,23.01,44,7.5,15.12,14.75,30.37,21.97,45.63,1.74,3.67,3.47,7.35,5.21,11.02,1.33,2.81,2.63,5.85,5.49,7.44,6.34,3.53,11.21-3.1,14.62-7.55,16.54-21.54,19.05-50.19,15.28-76.26-5.17-35.76-23.27-68.05-31.81-102.95-1.53-6.25-11.17-3.6-9.64,2.66,7.6,31.05,22.42,59.81,29.57,90.98,5.81,25.33,5.7,54.71-9.41,76.94-.51.75-5.87,6.83-5.74,7.11l1.02.08c1.23.39,1.38.07.47-.96-.08-.73-.88-1.87-1.2-2.54-.93-1.98-1.87-3.96-2.8-5.93-3.47-7.35-6.95-14.7-10.45-22.03-7.13-14.95-14.38-29.85-21.94-44.58s-15.14-28.73-23.36-42.73c-7.01-11.95-13.97-25.96-24.92-34.86-12.93-10.52-27.88-7.53-41.94-.95s-27.27,16.99-37.31,29.38c-4.02,4.96,3.02,12.07,7.07,7.07h0Z"/>
      <path class="cls-1" d="m419.17,176.81c27.91-8.97,56.19-16.7,84.78-23.17,6.27-1.42,3.62-11.06-2.66-9.64-28.59,6.47-56.87,14.2-84.78,23.17-6.1,1.96-3.49,11.62,2.66,9.64h0Z"/>
      <path class="cls-1" d="m463.07,160.21c14.09,44.55,27.89,89.19,41.39,133.92,1.86,6.14,11.51,3.53,9.64-2.66-13.5-44.73-27.3-89.37-41.39-133.92-1.93-6.11-11.59-3.5-9.64,2.66h0Z"/>
      <path class="cls-1" d="m545.72,292.8c-5.37-35.93-10.72-72.23-8.54-108.66.45-7.56.15-16.93,3.35-23.96,1.54-3.38,3.3-4.31,6.65-2.23,3.73,2.32,7.06,5.51,10.48,8.27,14.36,11.57,28.72,23.13,43.08,34.7,16.15,13.01,32.31,26.02,48.46,39.03,4.97,4,12.09-3.03,7.07-7.07-32.57-26.23-65.13-52.46-97.7-78.68-5.75-4.63-12.67-10.23-20.33-6.09-5.81,3.15-8.16,10.11-9.1,16.26-3.09,20.34-2.97,41.2-1.57,61.68,1.6,23.27,5.05,46.37,8.5,69.42.95,6.34,10.59,3.65,9.64-2.66h0Z"/>
      <path class="cls-1" d="m637.84,187.06c-14,4.43-27.99,8.87-41.99,13.3s-27.53,9.36-41.7,12.34c-6.29,1.32-3.63,10.97,2.66,9.64,14.16-2.98,27.91-7.97,41.7-12.34s27.99-8.87,41.99-13.3c6.11-1.94,3.5-11.59-2.66-9.64h0Z"/>
      <path class="cls-1" d="m737.45,132.11c-11.86-2.3-24.07-3.07-36.08-1.43-10.74,1.47-15.24,9.07-17.84,18.93-6.14,23.21,1.26,46.94,10.07,68.38,4.31,10.48,8.46,21.12,13.3,31.38,4.36,9.24,10,18.27,18.29,24.47,15.74,11.78,36.88,10.66,48.06-6.43,6.74-10.29,10.86-23.02,14.11-34.79,3.55-12.88,5.55-26.15,6.22-39.48.32-6.43-9.68-6.42-10,0-.97,19.61-5.25,38.98-12.85,57.11-3.07,7.32-6.79,16.14-14.32,19.86-6.74,3.33-14.96,1.74-21.31-1.74-15.56-8.54-21.29-27.94-27.74-43.24-7.58-17.97-15.82-36.59-16.06-56.43-.07-5.54.46-11.05,1.88-16.42,1.28-4.84,2.66-10.21,8.04-11.51,10.5-2.53,23.15-1.03,33.58.99,6.29,1.22,8.98-8.42,2.66-9.64h0Z"/>
      <path class="cls-1" d="m882.25,251.08c-11.31-59.81-41.42-113.36-66.32-168.2-7.15-15.75-13.85-31.7-19.62-48.02-1.06-3.01-4.39-4.71-7.34-2.99-23.41,13.67-45.08,30.14-64.52,49.02-4.73,4.59,2.16,10.99,7.07,7.07,34.7-27.68,70.58-53.85,107.5-78.48,5.33-3.55.33-12.22-5.05-8.63-37.64,25.1-74.16,51.82-109.53,80.04l7.07,7.07c18.87-18.32,39.79-34.2,62.5-47.46l-7.34-2.99c20.27,57.34,52.28,109.67,72.49,167.01,5.66,16.06,10.28,32.47,13.45,49.21,1.19,6.32,10.83,3.64,9.64-2.66h0Z"/>
    </g>
  </g>
</svg>